<svg width="352" height="284" viewBox="0 0 352 284" fill="black" xmlns="http://www.w3.org/2000/svg" preserveAspectRatio="none">    <path d="M344.175 0H347.195C347.739 1.1628 348.705 2.30043 348.755 3.4884C349.395 14.3412 350.134 25.199 350.331 36.0669C350.517 46.4415 349.933 56.8312 349.963 67.2108C350.059 99.281 350.371 131.356 350.467 163.426C350.527 188.212 350.406 212.999 350.26 237.78C350.22 244.56 349.51 251.341 349.621 258.111C349.717 263.85 350.567 269.573 351.025 275.307C351.076 275.941 350.728 276.61 350.562 277.265C350.009 276.761 349.299 276.394 348.942 275.795C348.595 275.123 348.403 274.381 348.378 273.625C347.925 267.716 347.18 261.801 347.165 255.886C347.165 248.441 347.99 241.002 348.021 233.557C348.141 203.072 348.161 172.591 348.081 142.113C348 113.642 347.714 85.1713 347.537 56.7003C347.452 42.8927 347.467 29.0851 347.306 15.2775C347.191 11.6793 346.866 8.09089 346.335 4.53039C346.239 3.77532 345.257 2.48668 344.774 2.51688C339.842 2.92965 334.929 3.5639 330.012 4.13272V4.50019L341.432 6.93653C341.679 5.73849 341.855 4.87772 342.036 4.01694H342.716C343.024 4.6607 343.262 5.33576 343.425 6.03045C344.004 10.5961 344.996 15.1667 344.965 19.7324C344.88 34.4612 344.155 49.1849 344.14 63.9087C344.063 123.945 344.081 183.984 344.195 244.027C344.195 253.578 344.177 263.123 344.14 272.664C344.14 275.488 343.169 276.404 340.375 276.258C339.122 276.193 337.859 275.991 336.626 275.946C322.321 275.429 308.017 274.926 293.713 274.436L293.683 275.307C311.249 276.042 328.812 276.782 346.375 277.527C347.447 277.572 348.514 277.813 349.586 277.965C349.586 278.277 349.586 278.594 349.586 278.906C348.725 279.097 347.865 279.455 347.009 279.444C337.949 279.339 328.915 279.359 319.88 278.991C295.721 277.985 271.562 277.074 247.313 278.428C231.771 279.298 216.173 279.127 200.6 279.47C168.197 280.184 135.799 280.849 103.401 281.705C85.2411 282.208 67.0917 282.993 48.9372 283.688C36.5406 284.166 24.1591 284.327 11.9035 281.891C9.18056 281.352 6.46771 280.763 3.91592 280.23C3.6089 281.579 3.41261 282.495 3.19618 283.406L2.38586 283.371C2.0889 282.213 1.60571 281.07 1.52518 279.892C0.931274 271.557 -0.145814 263.201 0.0152456 254.865C0.372597 232.943 1.62584 211.071 0.986635 189.088C0.397759 168.767 1.21817 148.4 1.37923 128.054C1.56043 104.697 1.61076 81.3356 1.88255 57.9739C2.09394 40.396 2.5771 22.8181 2.93445 5.24015C2.93445 4.43978 2.93445 3.64445 2.93445 2.72327H4.39407C18.5321 2.72327 32.6953 3.10584 46.8132 2.52695C65.0482 1.78196 83.238 0.307062 101.528 0.709763C132.678 1.39435 163.833 2.16452 194.983 2.03364C226.893 1.89773 258.793 1.21313 290.698 2.48164C305.939 3.09073 321.179 3.03536 336.374 1.47489C339.001 1.18796 341.603 0.498343 344.175 0ZM11.1737 10.2588L12.14 9.78564C12.5024 10.44 13.1467 11.0642 13.192 11.7488C13.8412 18.1316 14.863 24.5245 14.8881 30.9174C14.9536 44.6445 14.2892 58.3715 14.2892 72.0936C14.2892 120.163 14.3731 168.23 14.5408 216.296C14.571 231.704 14.4754 247.113 14.6516 262.516C14.7019 267.046 15.4871 271.577 15.9249 275.966C16.2554 276.049 16.5921 276.104 16.9316 276.132C32.7205 273.771 48.595 273.218 64.5248 273.771C73.8159 274.094 83.1121 274.592 92.4033 274.587C115.854 274.587 139.304 274.438 162.751 274.139C190.136 273.837 217.522 273.323 244.907 273.011C261.32 272.825 277.738 272.679 294.146 272.83C307.871 272.961 321.602 273.419 335.317 274.008C341.528 274.275 341.538 274.577 341.598 268.305C341.87 241.178 342.56 214.041 342.298 186.919C341.85 139.944 341.231 92.9736 342.449 45.9986C342.756 34.295 342.258 22.5714 342.137 10.8528C342.137 9.44334 341.689 8.70842 340.088 8.30068C331.314 6.09525 322.274 5.12779 313.232 5.4264C296.753 5.92978 280.285 7.007 263.801 7.4399C237.765 8.1396 211.719 8.44666 185.677 9.05071C154.2 9.80074 122.728 11.1599 91.2457 11.4166C67.6453 11.6079 44.035 10.4753 20.4296 9.90645C18.5875 9.86618 16.7403 9.85611 14.8932 9.65476C14.113 9.56918 13.3832 9.03561 12.6283 8.70338C13.4285 8.34095 14.2086 7.74193 15.0391 7.66642C16.7925 7.53131 18.5531 7.5145 20.3088 7.61609C35.3679 8.24531 50.427 9.39804 65.4861 9.41817C84.3151 9.44334 103.144 8.51713 121.973 8.04899C147.586 7.41977 173.2 6.74525 198.819 6.26201C222.102 5.82407 245.385 5.63782 268.668 5.28545C271.341 5.24518 274.014 4.83745 276.686 4.60086C276.686 4.35924 276.661 4.09748 276.646 3.88103C263.499 3.88103 250.353 3.74009 237.211 3.91124C199.1 4.41461 161 4.52536 122.894 3.24175C99.8825 2.47158 76.861 2.58232 53.8445 4.30387C40.5017 5.31062 27.0733 5.07404 13.6802 5.31062C11.0378 5.35593 8.39035 4.91799 5.62716 4.6965C5.5416 5.40626 5.45103 5.88447 5.43593 6.36771C4.70613 31.1389 3.79007 55.91 3.33206 80.6862C3.03007 97.0057 3.46795 113.34 3.42769 129.665C3.37232 152.523 3.14584 175.381 3.06028 198.24C3.06028 204.099 3.40756 209.963 3.36729 215.818C3.24147 234.488 2.94954 253.153 2.86398 271.818C2.83378 278.282 3.02 278.287 9.21578 279.772C10.1066 279.988 11.0076 280.179 11.9085 280.335C23.7062 282.349 35.5994 282.349 47.4877 281.846C61.4596 281.242 75.4064 280.069 89.3784 279.676C115.41 278.936 141.451 278.594 167.487 278.06C195.955 277.476 224.42 276.869 252.884 276.238C254.978 276.193 257.057 275.77 259.146 275.523C242.672 275.156 226.254 274.954 209.821 275.196C179.673 275.644 149.534 276.61 119.386 276.862C100.718 277.018 82.0401 276.334 63.3672 275.891C47.7645 275.523 32.2222 275.891 16.7504 278.025C14.566 278.332 13.1618 277.839 13.046 275.292C12.588 265.425 11.8078 255.569 11.6468 245.703C11.4757 235.324 12.0192 224.939 11.9941 214.559C11.88 165.148 11.7257 115.74 11.531 66.335C11.531 58.135 11.9337 49.9299 12.0343 41.7299C12.1451 33.7866 12.2055 25.8433 12.1048 17.9001C12.1149 15.3429 11.5109 12.8059 11.1737 10.2588Z"    />    <path d="M115.762 257.578C110.961 262.108 105.757 264.499 99.9533 260.598C97.2858 262.108 94.9806 263.986 92.3533 264.862C87.8638 266.372 83.9077 264.665 80.8929 261.227C79.5943 259.717 78.8796 260.049 77.3697 260.845C75.0551 262.144 72.5769 263.128 70.0012 263.769C65.9747 264.67 63.3374 263.055 61.1479 259.017C59.1347 260.135 57.1919 261.348 55.1082 262.35C52.3148 263.704 49.6221 263.226 46.9545 261.731C46.5558 261.55 46.1245 261.452 45.6868 261.442C45.2491 261.433 44.814 261.512 44.4078 261.675C39.9686 263.689 36.7675 263.563 34.1855 261.101C29.097 263.311 25.75 263.115 23.5656 260.517C21.9952 258.64 22.3375 256.319 24.4061 253.395C23.3391 251.069 21.6329 248.96 21.6127 246.851C21.6127 244.903 23.3894 242.935 24.4967 240.76C21.7486 239.481 18.8496 237.397 19.8763 232.963C20.8024 228.961 24.3256 227.622 27.0435 226.021C25.6845 223.665 23.8776 221.445 23.0723 218.913C22.1161 215.923 24.2954 213.779 26.7264 211.866C23.4045 210.014 19.9015 207.839 21.6278 203.812C22.8811 200.888 25.8204 198.688 27.9192 196.261C26.8824 194.424 25.0302 192.35 24.6024 190.02C24.1746 187.689 25.1913 185.127 25.609 182.398C24.8893 181.1 23.5102 179.378 22.9566 177.42C22.1916 174.707 23.173 172.094 25.1007 170.051C26.1979 168.883 26.4697 168.244 25.0252 167.106C22.3677 165.017 22.4784 162.027 23.5505 159.309C24.7585 156.238 26.4798 153.364 28.0803 150.479C28.6642 149.442 29.1574 148.869 27.9243 147.811C23.3391 143.865 21.0339 138.494 26.7767 131.91C21.4718 125.713 21.507 123.77 27.2196 115.741C24.2702 114.105 20.6766 112.686 21.5574 108.367C22.267 104.843 24.8792 102.739 28.1004 101.511C26.7969 99.0645 25.3624 96.8496 24.4011 94.4636C23.324 91.7605 24.2249 89.3997 26.6308 87.7285C20.9031 79.1157 20.9182 76.6542 26.5301 72.4611C26.0268 70.6741 25.0655 68.9374 25.1762 67.241C25.2769 65.7309 26.5402 64.2812 27.2247 62.9472C24.7081 59.6098 21.7939 56.0963 19.3277 52.2958C18.2456 50.6246 17.7574 48.3946 17.5711 46.366C17.2037 42.2836 19.4032 40.3255 23.475 40.6225C23.9783 40.6577 24.4313 40.6225 25.0705 40.6225C23.5605 36.1626 20.9584 31.7832 25.1611 27.278C23.621 26.9105 22.1916 26.6437 20.8125 26.2209C17.6366 25.2544 16.2827 22.6519 16.786 18.5897C17.1836 15.353 19.68 12.7606 22.5539 12.5794C25.0252 12.4284 26.1828 14.0895 27.4713 15.8161C28.1621 16.6378 29.0993 17.215 30.1439 17.4621C32.6856 18.0863 35.2928 18.4689 38.2824 19.0025C40.351 15.9218 43.9346 16.3698 47.3421 17.3967C49.919 18.182 52.2443 19.7726 54.7458 20.865C55.38 21.1418 56.593 21.2274 56.9503 20.865C61.4801 16.0627 66.7699 15.3278 72.7795 17.3413C73.5736 17.621 74.4443 17.5886 75.2155 17.2507C80.2486 14.3815 85.2314 13.7271 90.3451 17.0091C90.8273 17.263 91.3855 17.3328 91.9154 17.2054C99.4198 15.4587 100.275 15.5493 107.518 19.0981C112.204 13.4402 117.891 12.7807 124.344 15.7809C124.665 15.8995 125.008 15.9448 125.348 15.9135C125.689 15.8821 126.018 15.7749 126.312 15.5996C131.214 11.8545 135.251 11.5374 140.561 14.5929C140.842 14.754 141.134 14.905 141.411 15.051C146.776 9.21682 156.007 10.8075 161.101 17.15C163.366 16.4 165.52 15.1365 167.669 15.1365C169.682 15.1365 171.736 16.5107 174.267 17.4722C176.422 15.655 179.748 13.868 183.025 15.5694C186.302 17.2708 188.879 16.9739 192.185 15.7456C195.371 14.5627 199.005 14.8446 201.748 17.7591C206.842 13.8731 211.971 12.7002 217.386 17.3766C217.854 16.9588 218.317 16.5309 218.8 16.1131C221.684 13.6264 225.444 13.2841 228.867 15.0258C229.242 15.2199 229.651 15.338 230.072 15.3734C230.492 15.4088 230.916 15.3608 231.318 15.2322C237.03 12.5844 240.262 13.3747 243.8 18.2776C246.08 17.0846 248.224 15.5996 250.6 14.8295C252.975 14.0593 255.658 13.9939 257.092 16.8883C264.406 11.7438 268.865 11.4367 272.886 15.9117C277.331 12.8915 281.443 13.5006 284.528 16.9789C287.472 16.1533 290.145 14.6583 292.651 14.905C295.158 15.1516 297.448 17.1349 300.05 18.4638C302.028 15.6651 304.218 11.92 309.215 14.6634C314.41 9.80577 316.166 10.4501 319.523 18.3078C321.763 16.2943 323.872 14.0241 326.348 12.2673C327.904 11.1699 329.972 10.6716 331.885 10.2538C333.661 9.85611 334.789 10.8276 334.104 12.6901C333.198 15.1516 331.985 17.5024 330.823 20.0898C334.95 25.8887 334.95 25.8886 330.979 33.4393C334.28 35.7246 334.653 39.2885 331.844 43.1394C330.722 44.6747 329.328 45.9985 328.039 47.4231C334.321 52.8747 336.832 59.9672 329.771 64.1906C330.903 65.4792 332.287 66.5967 333.062 68.0414C334.275 70.2814 335.539 72.6624 335.962 75.1239C336.586 78.7633 333.903 80.6611 330.928 81.8994C333.445 87.7234 339.797 92.9736 333.073 99.3363C334.2 101.747 335.826 104.098 336.354 106.676C336.958 109.615 334.723 111.76 332.635 113.632C337.668 118.953 337.029 123.458 330.304 129.126C332.821 131.875 335.191 134.729 335.569 138.69C335.951 142.717 334.522 145.853 331.084 147.952C332.811 149.88 334.572 151.547 335.977 153.49C338.247 156.605 339.5 160.164 339.047 164.06C338.594 167.957 336.203 170.468 332.383 171.697C333.621 173.66 334.839 175.427 335.906 177.284C337.867 180.723 338.805 184.651 338.609 188.605C338.438 192.597 336.737 195.456 332.267 196.478C334.613 199.83 336.565 203.117 336.364 207.119C336.128 211.861 332.745 213.255 328.653 213.804C330.163 216.502 331.673 218.838 332.791 221.39C334.23 224.727 335.891 228.171 333.561 231.87C333.354 232.203 333.631 232.968 333.873 233.426C335.806 237.121 335.539 240.473 332.433 243.493C333.621 245.3 334.92 247.017 335.911 248.895C336.561 250.148 336.961 251.516 337.089 252.922C337.431 256.838 335.579 258.856 331.628 259.133C330.888 259.184 330.118 259.133 328.88 259.133C329.091 261.001 329.494 262.692 329.383 264.353C329.272 266.014 329.187 268.103 328.241 269.357C326.731 271.37 324.214 270.983 322.266 269.86C319.483 268.254 316.931 266.256 314.254 264.409C309.271 268.617 305.783 264.071 302.24 262.098C301.147 264.615 300.644 267.635 298.913 269.392C296.321 272.05 293.975 269.332 291.907 267.681C286.924 270.771 284.86 270.097 277.28 262.873C275.453 266.034 273.42 268.914 269.227 268.879C265.261 268.843 262.538 266.805 260.394 263.699C254.661 271.109 250.001 271.028 245.798 263.543C245.652 263.578 245.431 263.568 245.37 263.659C241.344 269.805 236.039 268.013 231.051 263.925C229.169 262.385 227.835 260.175 226.36 258.388C224.211 260.447 222.158 263.004 219.571 264.781C214.331 268.37 211.075 268.063 207.088 263.271C204.642 265.818 202.463 269.015 198.396 268.733C194.199 268.446 192.417 265.289 191.164 261.796C189.09 263.573 187.258 265.536 185.063 266.931C181.998 268.884 178.435 269.951 175.168 267.706C173.256 266.387 172.018 264.096 170.427 262.169C161.644 267.857 157.266 267.202 152.237 258.917C149.645 261.801 146.726 264.046 142.564 263.211C138.562 262.405 136.74 259.078 134.697 256.017C127.751 264.162 120.473 264.519 115.762 257.578ZM38.9921 34.7884C39.3545 38.5536 39.7874 41.8356 39.9685 45.1831C40.6531 57.8883 41.6647 70.5885 41.8006 83.3038C41.9969 101.712 41.6345 120.131 41.3426 138.549C41.0708 155.614 40.2756 172.683 40.2856 189.748C40.2856 202.372 41.2922 214.997 41.715 227.622C41.9013 233.224 41.715 238.842 41.8056 244.45C41.8711 247.973 41.9717 248.049 45.5251 247.938C61.4247 247.435 77.3194 246.735 93.224 246.428C128.667 245.759 164.03 247.722 199.352 250.415C222.475 252.177 245.617 253.792 268.81 253.752C283.36 253.727 297.911 252.745 312.467 252.242C314.48 252.177 315.321 251.492 315.18 249.408C315.131 247.649 315.194 245.889 315.366 244.138C316.257 229.187 317.842 214.232 317.908 199.277C318.039 169.809 317.404 140.341 316.931 110.879C316.659 94.3076 315.925 77.7465 315.592 61.1804C315.421 53.1566 315.547 45.1277 315.673 37.1039C315.708 34.889 316.227 32.6792 316.574 30.1069C315.386 30.1069 314.49 30.1069 313.594 30.1069C308.989 30.0214 304.384 29.9559 299.783 29.8251C283.3 29.367 266.806 28.2042 250.348 28.5465C216.868 29.2462 183.408 30.8469 149.942 31.909C116.553 32.9661 83.1578 33.8219 49.7831 34.743C46.3556 34.8689 42.9331 34.7884 38.9921 34.7884ZM39.4954 247.641C39.4954 235.61 39.9987 223.63 39.3897 211.705C38.3378 190.196 37.6533 168.697 38.8864 147.187C40.8997 110.944 40.7285 74.7262 37.5375 38.5435C37.3513 36.4243 37.5375 34.0383 33.8181 34.7934L34.0244 33.9578L37.1752 32.6037C36.7826 31.4711 36.6719 29.5834 35.8867 29.2311C34.573 28.6572 32.8215 29.075 30.7579 29.075L32.5799 31.4862C32.132 33.1675 31.523 34.3152 31.5733 35.4327C32.1672 48.7218 33.3953 62.0109 33.4053 75.3001C33.4053 100.816 32.7712 126.332 32.3987 151.849C32.3131 157.809 32.0363 163.779 32.2226 169.734C32.4994 178.457 31.0649 187.251 33.2292 195.909C33.2463 196.324 33.1953 196.739 33.0782 197.137C32.9121 198.602 32.6252 200.067 32.6 201.537C32.5296 206.148 33.7929 210.663 33.3147 215.35C33.0128 218.299 33.6419 221.35 33.9439 224.345C34.5227 230.169 35.1669 235.988 35.7709 241.812C35.8766 242.869 35.8565 244.676 34.4472 243.826C32.0263 242.346 29.9677 243.226 27.8085 243.826C26.213 244.279 24.2853 244.998 24.7886 247.128C24.9772 248.089 25.5212 248.945 26.3122 249.523C27.1033 250.102 28.0832 250.361 29.0567 250.249C30.3503 250.148 31.5733 249.509 32.892 249.373C33.7375 249.287 34.6284 249.665 35.4991 249.836C35.1367 250.636 34.9958 251.88 34.3717 252.146C32.8486 252.761 31.2511 253.172 29.6204 253.37C27.6726 253.677 25.0906 256.209 25.2416 257.845C25.3926 259.481 27.889 260.487 30.2999 259.566C32.3434 258.781 34.1553 257.392 36.083 256.289C36.9487 255.786 37.8496 255.348 38.7304 254.88C38.7304 255.886 38.8009 256.848 38.7304 257.824C38.6237 258.538 38.4656 259.243 38.2573 259.934C39.2736 260.13 40.3192 260.12 41.3314 259.903C42.3436 259.686 43.3015 259.266 44.1475 258.67C44.9936 258.073 45.7105 257.312 46.2551 256.431C46.7998 255.551 47.1609 254.569 47.3169 253.546H43.1495C43.1983 254.233 43.1983 254.922 43.1495 255.61C43.0941 255.947 42.7317 256.526 42.5606 256.511C42.1109 256.458 41.6958 256.243 41.3929 255.907C40.4719 254.784 39.6414 253.596 38.6046 252.207L40.3813 251.059L37.2406 249.383L39.4954 247.641ZM323.635 124.193H323.902C324.179 139.934 324.516 155.669 324.728 171.41C324.894 183.546 324.889 195.688 325.025 207.824C325.025 208.71 325.578 210.341 325.855 210.341C327.868 210.316 330.148 210.437 331.784 209.52C332.74 208.982 333.158 206.535 332.947 205.076C332.353 200.978 329.736 198.064 326.489 195.637C326.24 195.416 326.043 195.141 325.914 194.834C325.785 194.526 325.727 194.194 325.744 193.86C325.81 193.478 326.716 193.07 327.289 192.984C328.042 192.947 328.796 193.015 329.529 193.186C334.633 193.931 337.406 191.112 336.379 186.018C335.418 180.98 332.975 176.344 329.363 172.703C328.734 172.074 328.442 171.118 327.994 170.312C328.815 170.033 329.657 169.816 330.511 169.663C335.478 169.16 338.121 166.099 337.094 161.659C336.555 159.163 335.495 156.809 333.984 154.752C332.472 152.694 330.542 150.979 328.321 149.719C327.617 149.307 327.154 148.486 326.58 147.852C327.209 147.424 327.783 146.845 328.472 146.598C332.368 145.234 334.562 142.113 333.208 138.781C332.11 136.028 330.499 133.509 328.462 131.356C325.342 128.16 325.115 128.381 329.247 126.629C331.925 125.497 333.918 121.903 333.344 119.265C332.771 116.627 330.616 114.926 327.249 115.545C327.169 115.545 327.063 115.6 327.003 115.545C326.429 115.218 325.855 114.876 325.286 114.538C325.719 114.141 326.087 113.577 326.6 113.37C328.075 112.787 329.67 112.495 331.1 111.825C334.623 110.169 335.519 106.791 333.032 103.801C331.749 102.261 329.806 101.284 328.231 99.9655C327.651 99.3736 327.133 98.7243 326.685 98.0275C327.425 97.8061 328.16 97.5644 328.91 97.3681C329.159 97.3403 329.411 97.3403 329.66 97.3681C333.309 97.2221 335.02 95.0173 333.546 91.7051C332.143 88.724 330.44 85.8938 328.462 83.2585C326.711 80.8372 326.781 80.1677 329.705 79.4781C333.556 78.567 334.915 75.9545 333.279 72.3654C331.819 69.169 329.429 66.7779 326.484 64.8903C326.007 64.4846 325.585 64.0174 325.231 63.5009C325.764 63.0685 326.324 62.67 326.907 62.3079C327.374 62.1211 327.858 61.9795 328.351 61.8851C331.306 60.974 332.786 58.4219 331.371 55.7087C330.094 53.3373 328.427 51.1981 326.439 49.3812C324.214 47.3677 324.013 47.4332 326.439 45.5002C327.35 44.7753 328.487 44.1461 329.036 43.1947C329.969 41.4962 330.711 39.7 331.251 37.8388C331.376 37.4361 330.435 36.2079 330.178 36.2632C328.251 36.6609 326.248 37.0535 324.541 37.9647C323.877 38.317 323.681 39.9782 323.681 41.0755C323.63 68.7713 323.615 96.4771 323.635 124.193ZM184.454 25.7527C184.454 24.4087 184.253 23.4422 184.5 22.6066C184.948 21.0663 185.335 19.3045 183.745 18.6149C182.154 17.9252 180.101 17.6383 178.606 18.1719C177.187 18.6753 176.22 20.4824 175.083 21.7408C174.464 22.4254 173.91 23.1654 173.326 23.8802C172.878 23.1654 172.42 22.4556 171.997 21.7257C171.836 21.4312 171.721 21.1138 171.655 20.7844C170.966 17.6484 166.995 16.254 164.141 19.239C163.134 20.281 162.948 22.063 162.223 23.4221C161.846 24.1168 161.106 24.6151 160.532 25.2041C160.215 24.6 159.551 23.9456 159.636 23.402C160.597 17.1651 152.922 13.2489 147.964 14.3915C145.589 14.9352 144.124 16.1735 143.903 18.7709C143.832 19.6166 143.163 20.4069 142.77 21.2224C142.206 20.6032 141.446 20.0746 141.119 19.3448C139.388 15.5392 132.996 13.7774 129.639 16.249C127.766 17.6282 127.887 19.4203 128.33 21.4388C128.486 22.1687 127.907 23.0546 127.666 23.8701C126.981 23.2963 126.116 22.8634 125.652 22.1184C125.149 21.3079 125.24 20.0042 124.611 19.3699C121.863 16.5913 118.349 16.3497 114.781 17.1098C111.761 17.739 110.07 19.7173 109.667 22.8332C109.587 23.4422 108.983 23.9809 108.62 24.5497C108.117 24.1772 107.478 23.9053 107.156 23.4171C104.599 19.5461 98.8058 17.3766 94.4874 18.9169C93.7978 19.1635 92.8717 20.3565 92.9774 20.9304C93.224 22.2442 93.3499 23.548 91.9708 23.7392C91.3215 23.8298 89.9575 22.4456 89.7965 21.5797C89.4291 19.3095 87.8537 18.4588 86.1122 17.9454C84.6999 17.5324 83.2152 17.428 81.759 17.639C80.3027 17.8501 78.9088 18.3717 77.6717 19.1686C76.6147 19.8079 76.3782 20.5327 76.816 21.8566C77.3445 23.4422 77.9284 25.934 75.7792 26.3518C73.6301 26.7696 73.4388 24.3383 73.016 22.6117C72.7996 21.7257 72.4624 20.5629 71.793 20.1502C67.2128 17.3514 60.554 19.5562 58.3697 24.5094C57.6398 26.1756 56.7842 26.5682 55.4102 25.189C52.5665 22.3398 49.1037 20.6233 45.2382 19.6065C42.4549 18.8766 41.1211 19.7525 40.7588 22.5613C40.5827 23.2436 40.3187 23.9001 39.9736 24.5144C39.2689 24.2023 38.4032 24.0513 37.8848 23.5479C35.328 21.0613 32.4189 19.7525 28.8252 20.5277C27.1592 20.875 26.2533 20.3213 25.5386 18.7055C24.8642 17.1953 23.8978 15.1365 21.7537 15.8664C19.529 16.6215 19.6297 18.9219 19.8864 20.8146C19.9844 21.2848 20.1839 21.7278 20.4707 22.113C20.7576 22.4981 21.125 22.816 21.5473 23.0446C23.0044 23.631 24.5488 23.9712 26.1174 24.0513C29.0769 24.2426 29.0819 24.1419 29.2732 27.1823C80.9734 27.1119 132.694 28.0783 184.454 25.7527ZM321.521 30.3586C318.26 29.9358 318.154 29.9308 317.998 33.0366C317.646 40.0436 317.087 47.0657 317.213 54.0727C317.409 65.1118 318.305 76.1407 318.537 87.1848C319.166 116.814 319.408 146.452 320.173 176.076C320.731 197.636 319.005 219.064 317.656 240.508C317.419 244.153 317.319 247.807 317.153 251.638H324.058C323.822 252.247 323.52 252.579 323.187 252.614C311.143 253.913 299.099 255.187 291.086 256.032H316.599C316.926 256.032 317.419 256.078 317.565 255.891C319.075 253.959 320.626 255.081 322.095 255.811C323.721 253.611 323.706 253.651 326.122 254.598C327.647 255.256 329.233 255.762 330.858 256.108C333.908 256.611 335.101 255.353 334.104 252.418C332.534 247.777 328.91 244.772 324.788 241.243C324.788 243.926 324.904 245.854 324.738 247.757C324.662 248.582 324.013 249.358 323.625 250.158C323.258 249.378 322.578 248.603 322.573 247.822C322.528 239.663 322.674 231.503 322.609 223.348C322.387 195.048 322.04 166.754 321.869 138.459C321.678 106.983 321.622 75.5367 321.516 44.0354C321.506 39.5654 321.521 35.0602 321.521 30.3586ZM170.79 28.8485V28.5817C168.469 28.5817 166.149 28.5817 163.834 28.5817C133.434 28.7294 103.032 28.872 72.6285 29.0096C62.0589 29.0499 51.5246 28.9693 40.9752 28.8284C38.8663 28.7982 38.4032 29.523 38.6146 31.4661C38.8361 33.5802 40.2605 33.2077 41.5389 33.1725C79.2068 32.0953 116.873 31.0013 154.538 29.8905C159.963 29.7294 165.374 29.2109 170.79 28.8586V28.8485ZM224.402 255.413L224.362 254.769C163.899 249.624 103.386 246.675 42.6663 251.074C43.1692 251.417 43.7593 251.609 44.3675 251.628C47.2162 251.598 50.065 251.497 52.9238 251.447C69.4174 251.155 85.9109 250.697 102.404 250.646C111.696 250.616 120.982 251.296 130.273 251.547C131.863 251.593 133.479 250.843 135.064 250.908C137.173 250.989 139.252 251.703 141.361 251.809C154.658 252.484 167.961 253.062 181.258 253.687C194.724 254.318 208.187 254.952 221.649 255.589C222.569 255.587 223.489 255.531 224.402 255.423V255.413ZM228.655 24.2074C228.55 22.5966 228.379 21.3683 228.404 20.1401C228.454 17.3967 226.919 15.9973 224.226 16.4453C222.945 16.6368 221.756 17.2256 220.827 18.1286C219.898 19.0317 219.275 20.2035 219.047 21.4791C218.861 22.3247 218.191 23.0647 217.744 23.85C217.21 23.0999 216.42 22.4204 216.183 21.5848C215.333 18.5645 213.385 16.9285 210.274 16.8933C206.454 16.843 204.084 18.6551 202.488 22.6217C202.196 23.3416 201.376 23.855 200.797 24.4591C200.495 23.704 199.926 22.9489 199.936 22.1838C199.967 19.2038 198.884 17.89 195.91 17.6534C191.043 17.2557 188.451 19.3901 186.347 25.7074L228.655 24.2074ZM97.7186 252.403L63.3474 253.349C63.443 254.537 63.4984 255.454 63.594 256.37C64.0068 260.326 66.8152 262.41 70.58 261.132C72.8442 260.36 74.9839 259.263 76.9318 257.875C79.9064 255.771 79.8057 255.63 82.121 258.65C84.9395 262.33 89.5649 263.684 93.4656 262.002C96.8479 260.523 98.4333 257.185 97.7186 252.403ZM285.454 25.048C283.979 24.7812 282.52 24.2476 281.085 24.298C262.604 24.9322 244.125 25.6219 225.651 26.3669C224.835 26.4355 224.024 26.5464 223.22 26.6991C227.89 26.8199 232.536 26.835 237.186 26.8149C252.412 26.7645 267.642 26.4222 282.857 26.7243C295.143 26.9659 307.414 27.9978 319.694 28.5918C320.419 28.627 321.204 27.8367 321.939 27.434C321.26 27.0061 320.605 26.2511 319.896 26.2007C309.895 25.4759 299.884 24.7963 289.868 24.2426C288.373 24.157 286.833 24.7812 285.459 25.0581L285.454 25.048ZM29.9325 62.0714L30.5566 61.6787C30.6488 61.2225 30.7043 60.7596 30.7227 60.2944C30.4308 51.4283 30.1254 42.5638 29.8067 33.7011C29.7765 32.9611 29.7614 31.9795 29.3034 31.5516C28.4226 30.706 27.2448 30.1724 26.1879 29.513C25.8053 30.4442 24.9245 31.5265 25.1309 32.2916C25.9563 35.4729 27.0938 38.5838 28.1508 41.6947C28.5279 42.6304 28.9529 43.546 29.4241 44.4381L28.8202 44.9415C28.0551 44.4381 27.3455 43.7384 26.4999 43.4817C25.6543 43.2249 24.2803 42.9279 23.626 43.3659C19.0559 46.4566 18.8244 48.0976 21.95 52.7438C22.2874 53.3122 22.6606 53.8587 23.0673 54.3798C25.3725 56.9621 27.6575 59.5092 29.9375 62.0714H29.9325ZM193.076 256.375C193.806 259.224 194.133 261.685 195.089 263.875C196.046 266.065 197.994 266.508 200.339 265.697C202.881 264.821 204.209 262.737 205.709 260.764C206.33 260.061 207.003 259.407 207.723 258.806C208.287 259.454 208.792 260.152 209.233 260.89C210.742 264.056 212.69 265.42 215.172 264.56C218.539 263.392 221.08 261.127 223.154 257.734L193.076 256.375ZM173.447 255.554C173.578 257.598 173.538 259.264 173.819 260.875C174.262 263.351 175.616 265.154 178.294 265.561C182.758 266.241 189.553 260.986 190.107 256.344L173.447 255.554ZM155.162 254.547C154.739 259.284 156.772 262.445 160.351 263.16C164.694 264.021 169.154 260.96 171.076 255.408L155.162 254.547ZM317.485 23.9104C317.425 22.6117 317.44 21.5646 317.309 20.5327C317.118 18.9773 317.123 17.291 316.463 15.9419C316.015 15.0258 314.626 14.2305 313.559 14.0945C312.995 14.019 311.954 15.3479 311.621 16.2289C311.199 17.3564 311.329 18.6803 311.118 19.8985C310.936 20.4686 310.678 21.012 310.353 21.5143C309.904 21.1479 309.506 20.7229 309.17 20.2508C308.742 19.4505 308.531 18.5394 308.164 17.734C306.885 15.0107 305.023 14.759 303.382 17.2004C302.586 18.368 301.997 19.6638 301.641 21.0311C301.52 21.5344 302.31 22.7526 302.763 22.7929C307.65 23.2711 312.547 23.5782 317.47 23.9255L317.485 23.9104ZM313.554 257.658L313.207 258.7C315.76 262.336 319.126 265.326 323.036 267.434C323.768 267.842 324.616 267.991 325.442 267.857C326.182 267.67 327.128 267.016 327.365 266.347C328.17 264.051 323.973 257.845 321.501 257.694C318.844 257.543 316.186 257.673 313.539 257.673L313.554 257.658ZM256.378 22.7677C260.178 22.7677 263.842 22.8231 267.506 22.7677C270.053 22.7174 270.798 21.8063 270.873 18.9672C270.929 16.7624 269.791 15.4889 267.662 15.2271C262.961 14.6231 256.921 19.0981 256.378 22.7677ZM33.3601 239.96C32.7762 235.238 32.3031 231.463 31.7494 227.033C28.8705 228.654 26.4244 229.716 24.3558 231.276C21.9147 233.124 22.2972 236.28 25.0806 237.478C27.4713 238.49 30.0885 238.993 33.3601 239.96ZM115.259 253.047C110.664 252.876 106.522 252.685 102.379 252.62C101.926 252.62 101.02 253.42 101.071 253.727C101.327 255.383 101.347 257.477 102.369 258.484C103.391 259.491 105.555 259.873 107.09 259.652C110.664 259.128 113.15 256.823 115.259 253.057V253.047ZM260.913 258.826C262.543 261.051 263.515 263.039 265.065 264.313C266.741 265.692 268.845 266.83 271.316 265.778C272.376 265.382 273.297 264.684 273.965 263.771C274.633 262.858 275.02 261.769 275.076 260.638C275.121 260.069 274.311 258.922 273.863 258.902C269.882 258.776 265.885 258.836 260.913 258.836V258.826ZM231.041 23.7946C234.061 23.7946 237.287 23.8349 240.488 23.7443C240.75 23.6796 240.991 23.5504 241.19 23.3683C241.389 23.1863 241.538 22.9573 241.626 22.7023C241.958 20.7794 241.953 18.8565 240.342 17.3816C239.581 16.654 238.614 16.179 237.572 16.0214C236.531 15.8637 235.467 16.0311 234.524 16.5007C233.319 17.0673 232.342 18.0279 231.756 19.2239C231.167 20.5629 231.257 22.209 231.041 23.8047V23.7946ZM323.927 34.8689L324.652 35.4679C326.716 33.7564 329.061 32.2815 330.788 30.2731C333.279 27.3686 332.755 24.5094 329.781 22.3499C329.323 22.0177 328.442 21.6955 328.075 21.912C326.78 22.7394 325.532 23.6367 324.335 24.6L325.729 26.4575C322.206 27.278 324.451 28.3753 325.498 29.4173C322.931 30.8167 324.058 32.9913 323.927 34.879V34.8689ZM132.226 253.626H118.133C118.208 256.994 119.789 259.138 122.723 259.783C125.934 260.492 130.157 257.905 132.226 253.626ZM247.706 258.806C247.63 263.336 250.026 266.79 253.136 266.679C256.428 266.563 258.718 263.316 258.492 258.806H247.706ZM230.492 258.363C231.64 261.046 235.767 264.459 238.586 264.63C239.648 264.696 241.102 264.409 241.767 263.709C243 262.41 243.78 260.689 244.786 259.148L244.364 258.363H230.492ZM136.841 253.767C138.854 257.588 140.364 260.905 144.673 260.774C147.602 260.689 150.456 257.97 151.311 254.568L136.841 253.767ZM30.7931 87.356V74.9981C25.5688 73.8906 24.0135 76.8656 24.6729 79.4278C25.5235 82.7652 27.3958 85.3878 30.7781 87.356H30.7931ZM60.8711 253.375C57.9217 253.375 55.1736 253.339 52.4306 253.375C51.1824 253.375 48.1675 258.031 48.706 259.108C49.0029 259.6 49.4764 259.96 50.0298 260.115C53.8197 261.142 59.6028 257.618 60.856 253.375H60.8711ZM325.322 215.148C325.202 215.476 325.11 215.812 325.045 216.155C325.045 218.41 325.196 220.685 324.954 222.915C324.567 226.439 325.105 228.956 329.298 229.585C331.135 229.862 332.046 229.666 331.724 227.743C330.918 223.056 328.518 219.14 325.306 215.148H325.322ZM278.81 258.871C279.742 262.747 283.682 266.422 287.04 266.704C287.719 266.764 289.002 266.462 289.053 266.201C289.249 264.937 289.445 263.472 288.977 262.35C288.439 261.051 287.372 259.299 286.244 259.048C283.924 258.509 281.433 258.871 278.795 258.871H278.81ZM272.569 22.2442H283.894C283.924 19.1837 281.845 16.5913 279.233 16.1584C276.012 15.6248 274.115 17.3162 272.554 22.2442H272.569ZM318.19 23.553C320.449 24.9624 321.768 24.8416 322.478 22.8181C323.258 20.5931 324.904 19.5662 327.113 19.2239C328.93 18.9421 331.88 16.0476 332.031 14.1902C332.146 12.7405 331.326 11.9552 329.861 12.368C329.055 12.6008 328.32 13.0317 327.722 13.6214C324.541 16.848 321.471 20.1351 318.174 23.5479L318.19 23.553ZM298.47 22.3499C298.213 21.1411 297.643 20.0207 296.819 19.1004C295.994 18.1801 294.942 17.492 293.769 17.1047C290.618 15.947 287.79 17.3464 286.723 20.3465C286.29 21.5395 286.481 22.36 287.925 22.36C291.272 22.36 294.69 22.3499 298.455 22.3499H298.47ZM290.608 258.781C291.203 261.642 292.665 264.25 294.796 266.251C295.4 266.845 296.502 266.931 297.373 267.258C297.901 264.892 298.5 262.536 298.883 260.145C298.938 259.772 297.997 259.234 297.503 258.786C297.458 258.746 297.342 258.786 297.262 258.786L290.608 258.781ZM30.5264 113.471V103.65C27.0334 103.811 23.9028 106.449 24.0538 109.016C24.2149 111.704 26.7616 113.557 30.5264 113.471ZM254.188 23.1201C254.385 21.8465 254.812 20.6837 254.646 19.5964C254.5 18.7004 253.841 17.4672 253.096 17.1651C250.288 16.0376 244.872 20.1854 244.771 23.5933L254.188 23.1201ZM30.0533 199.619C26.359 200.898 23.9682 203.696 24.4111 205.997C24.7735 207.864 27.4562 209.339 30.6573 209.289C30.461 206.082 30.2596 202.891 30.0533 199.619ZM30.1741 129.811V117.609C27.4763 118.772 25.3121 122.21 25.5486 124.968C25.7751 127.5 27.1995 129.02 30.1791 129.811H30.1741ZM29.8318 153.585C27.0334 155.664 24.9799 160.632 25.901 163.371C26.218 164.312 27.2951 165.082 28.186 165.686C28.3974 165.832 29.7463 165.022 29.7563 164.619C29.8922 161.01 29.8369 157.396 29.8369 153.585H29.8318ZM30.924 213.698C28.2665 214.423 26.1274 214.942 25.8909 217.67C25.6795 220.187 27.8035 222.492 31.6186 223.711C31.3921 220.368 31.1706 217.227 30.929 213.698H30.924ZM325.221 232.414C324.526 236.98 324.823 237.855 328.271 239.587C329.147 240.03 330.838 240.176 331.361 239.658C331.96 239.069 331.98 237.493 331.709 236.501C330.848 233.355 328.236 232.646 325.226 232.414H325.221ZM29.6003 169.995C26.4596 171.923 24.9598 174.596 25.5738 177.043C26.0771 179.006 27.2347 180.219 29.6003 180.209V169.995ZM29.9073 132.952C27.3908 135.157 25.6141 137.064 26.0872 140.075C26.4395 142.325 27.5971 144.102 29.9073 145.571V132.952ZM30.6573 89.742C28.4427 89.5859 26.6962 90.4115 26.2382 91.7555C25.6241 93.5676 27.8941 97.4889 30.6573 99.14V89.742ZM311.194 263.357C311.133 258.418 309.845 257.819 303.141 259.153C305.431 261.413 307.736 263.2 311.194 263.357ZM30.5566 72.2899V65.2426L29.7714 64.7644C28.951 65.6101 27.5166 66.3903 27.426 67.2813C27.2197 69.4609 28.5132 71.117 30.5566 72.2899ZM29.6808 192.974V184.417C25.9261 186.441 25.9966 189.904 29.6909 192.974H29.6808ZM253.343 255.761L253.408 256.133L228.791 254.799L228.766 255.761H253.343Z"    />    <path d="M104.774 234.463C123.853 235.097 142.932 235.736 162.011 236.381C165.187 236.491 168.363 236.773 171.529 237.035C173.346 237.186 175.007 237.035 176.355 235.6C177.402 234.493 178.273 234.845 179.31 235.857C180.089 236.596 181.08 237.073 182.144 237.221C184.638 237.52 187.153 237.621 189.663 237.523C191.601 237.428 193.513 236.849 195.436 236.486C196.09 236.366 196.83 235.983 197.384 236.179C200.545 237.241 203.851 237.211 207.088 237.689C208.16 237.84 209.222 238.102 210.294 238.147C235.339 239.154 260.363 238.374 285.378 237.005C289.047 236.808 292.706 236.371 296.37 236.043C298.278 235.872 300.024 235.716 301.529 234.03C303.034 232.344 305.556 232.907 307.01 234.735C308.52 236.668 308.42 240.005 306.779 241.339C305.138 242.673 302.174 242.346 301.132 240.211C299.788 237.438 297.88 237.941 295.56 238.067C277.506 239.018 259.452 240.025 241.383 240.584C231.262 240.906 221.12 240.463 210.988 240.292C209.091 240.262 207.646 240.362 206.886 242.567C206.569 243.478 204.949 244.696 204.204 244.525C203.578 244.326 203 244 202.506 243.567C202.012 243.134 201.614 242.603 201.335 242.008C200.741 240.594 200.087 240.146 198.622 240.096C195.99 240.005 193.483 239.985 191.319 241.872C190.534 242.502 189.605 242.927 188.616 243.111C186.1 243.614 183.538 243.282 181.615 246.066C180.196 248.114 176.99 247.374 174.644 245.391C174.141 244.963 173.295 244.384 172.842 244.55C169.546 245.728 166.747 244.55 164.12 242.804C161.724 241.188 159.419 240.579 156.646 242.008C155.549 242.572 154.039 242.512 152.735 242.461C150.349 242.325 149.509 240.72 149.655 238.238C147.138 238.097 144.732 237.891 142.327 237.835C123.573 237.407 104.82 237.05 86.0663 236.567C79.5232 236.396 73.0204 235.928 66.4975 235.62C65.0681 235.555 63.3015 234.966 63.1454 237.418C63.1454 237.448 61.7312 237.654 61.399 237.337C60.9359 236.899 60.8956 236.038 60.3168 235.172C61.2832 239.834 60.1155 242.909 54.9415 242.723C53.8826 242.732 52.8591 242.343 52.0727 241.634C51.2863 240.925 50.7942 239.947 50.6935 238.892C50.5073 236.063 52.2034 234.302 56.537 233.068C54.1513 212.148 56.0336 191.102 56.1041 169.567C55.1579 170.071 54.5942 170.328 54.0909 170.655C53.4348 171.164 52.7472 171.631 52.0323 172.054C50.0895 172.965 47.734 172.442 47.1049 171.047C46.3298 169.351 47.4924 167.141 49.6214 166.26C50.2846 166.006 50.8806 165.603 51.364 165.082C51.8474 164.562 52.2053 163.937 52.4102 163.257C52.6152 162.577 52.6619 161.859 52.5467 161.158C52.4314 160.457 52.1574 159.792 51.7454 159.213C51.1985 158.491 50.5143 157.883 49.7322 157.426C45.298 154.703 45.8063 151.099 48.2222 147.917C49.1685 146.674 49.8077 145.728 48.7255 144.031C46.1737 140.004 47.0747 137.442 51.4585 135.393C50.4519 134.276 49.3849 133.204 48.4387 132.061C45.5446 128.633 45.8416 125.064 49.2138 122.169C50.403 121.262 51.5296 120.274 52.586 119.215C53.9147 117.705 53.4064 116.34 51.5139 115.852C49.0577 115.218 47.6938 110.914 49.3446 109.006C50.3513 107.874 52.3192 108.503 53.1044 110.244C53.3137 110.82 53.4737 111.413 53.5825 112.016L54.2368 112.057C54.391 111.298 54.4935 110.529 54.5438 109.756C54.5438 105.07 54.262 100.368 54.5036 95.6919C55.0824 84.4162 56.0135 73.1607 56.5621 61.8801C56.7836 57.3094 56.3809 52.7035 56.3105 48.1127C56.3105 46.5674 55.5555 46.2301 54.111 46.1798C50.3865 46.0388 48.338 43.9045 48.6702 40.7886C49.0124 37.567 52.0776 36.0921 54.7452 37.9043C55.3828 38.3042 55.9187 38.8471 56.3105 39.4899C57.7801 42.2786 59.8337 43.3156 63.1606 43.5169C78.7632 44.4079 94.2803 42.787 109.828 42.1578C120.699 41.7198 131.591 41.8004 142.478 41.6544C143.137 41.6544 143.801 41.6544 144.768 41.6544C144.345 40.9698 144.023 40.5319 143.791 40.0486C142.795 38.1459 143.197 36.3589 144.808 35.1256C146.283 33.988 148.089 33.6658 149.66 34.9897C151.346 36.4042 150.797 38.1308 149.947 39.7768C149.65 40.3456 149.247 40.8641 148.749 41.6292H157.501L157.567 41.0655C156.027 40.9598 154.482 40.9144 152.957 40.7131C152.315 40.5381 151.701 40.2773 151.129 39.9379C151.738 39.5302 152.363 38.755 152.967 38.7751C155.049 38.7744 157.125 39.004 159.157 39.4597C165.962 41.2366 167.21 40.8792 171.207 35.3119C171.366 35.1408 171.543 34.9873 171.735 34.8538C172.269 36.9176 172.077 37.27 167.739 42.0974H174.045C174.045 40.0839 173.708 38.0402 174.151 36.1726C174.498 34.7028 175.595 32.649 176.758 32.352C177.921 32.055 179.879 33.3084 180.855 34.431C183.487 37.4512 186.744 39.4647 190.242 41.1611C192.758 42.3843 194.772 40.9749 196.694 39.6157C197.389 39.0211 198.049 38.3875 198.672 37.718C200.379 36.2079 202.196 35.4478 203.524 36.4898C205.714 36.1626 207.224 35.6491 208.623 35.8555C209.307 35.9562 210.41 37.562 210.238 38.1962C209.817 39.4836 209.026 40.6182 207.964 41.4581C207.621 41.74 206.142 41.1007 205.522 40.5218C203.132 38.2818 202.055 38.1761 199.558 40.2852C198.879 40.854 198.209 41.438 197.731 41.8457L300.14 42.6461C300.417 37.8942 301.147 36.9579 304.338 36.7112C306.94 36.5099 307.458 38.3372 307.796 40.1292C308.299 42.7669 306.457 44.3928 301.756 45.3643C303.819 67.0095 304.725 88.7755 303.029 110.607H304.197C304.197 109.097 303.774 107.441 304.308 106.167C304.917 104.712 306.406 103.686 307.831 104.214C307.086 105.221 306.104 106.182 305.561 107.365C305.344 107.843 306.064 108.76 306.628 110.033L308.802 106.56C310.055 108.83 309.341 110.808 307.066 111.84C303.039 113.672 302.002 116.728 304.428 120.488C306.135 123.136 308.309 125.487 309.965 128.16C311.007 129.831 311.475 131.859 312.24 133.697C312.376 134.044 312.552 134.598 312.788 134.643C315.597 135.182 314.414 136.908 313.725 138.192C312.904 139.702 311.908 140.95 312.028 142.964C312.104 144.253 310.921 145.692 310.116 146.946C308.445 149.528 306.396 151.894 304.972 154.592C302.455 159.374 305.334 163.758 310.715 163.708C311.21 163.751 311.7 163.837 312.179 163.965C311.621 165.264 311.132 166.396 310.569 167.715C310.14 167.448 309.674 167.247 309.185 167.121C308.5 167.035 307.645 166.97 307.126 167.307C306.784 167.529 306.623 168.676 306.89 169.034C307.252 169.537 308.213 170.041 308.712 169.874C309.743 169.526 310.683 168.951 311.465 168.193C312.054 167.624 312.3 166.683 312.834 165.676C314.792 167.831 313.77 169.366 312.622 170.791C311.203 172.547 308.52 172.915 306.472 171.757C304.715 170.75 304.187 168.843 305.042 166.527C305.737 164.639 305.737 164.639 303.532 163.386C303.784 171.742 304.227 179.997 304.247 188.268C304.282 202.07 304.061 215.878 303.875 229.686C303.875 230.406 303.185 231.115 302.818 231.83C302.531 231.09 301.977 230.32 301.992 229.605C302.209 216.804 302.496 204.003 302.762 191.208L301.987 191.177C301.7 195.381 301.318 199.584 301.142 203.792C300.789 212.239 300.548 220.69 300.276 229.142C300.16 232.756 300.18 232.887 296.627 232.958C282.398 233.255 268.175 233.667 253.946 233.662C210.817 233.662 167.688 233.426 124.555 233.396C117.951 233.396 111.343 233.954 104.734 234.261L104.774 234.463ZM60.7547 47.2721C60.7547 54.3949 60.8352 61.568 60.7245 68.7411C60.6591 73.0097 60.0098 77.2985 60.1205 81.5319C60.6238 100.857 60.9611 120.196 61.9828 139.496C63.5682 169.613 64.4541 199.725 63.6085 229.872C63.538 232.389 64.2276 233.068 66.6284 232.993C82.1908 232.49 97.7532 232.016 113.316 231.734C135.003 231.347 156.686 231.005 178.374 230.884C196.377 230.783 214.391 230.743 232.384 231.191C253.06 231.694 273.721 232.776 294.407 231.644C296.899 231.508 297.724 230.763 297.785 228.301C298.036 218.007 298.721 207.718 298.766 197.424C298.873 172.316 298.825 147.206 298.62 122.094C298.449 97.9319 295.333 73.8554 296.219 49.3812C295.58 49.346 294.709 49.2504 293.788 49.2453C270.173 49.0507 246.557 48.8594 222.942 48.6715C195.481 48.455 168.011 47.9416 140.55 48.1681C117.689 48.3342 94.839 49.0641 71.9987 47.3325C68.3296 47.0305 64.5749 47.2721 60.7547 47.2721ZM91.4215 45.4801C92.9063 45.5656 94.3911 45.7217 95.8759 45.7368C102.072 45.7922 108.272 45.8727 114.468 45.8173C135.819 45.616 157.174 45.0723 178.525 45.1931C213.193 45.3794 247.861 45.9683 282.529 46.4314C287.467 46.5019 292.399 46.8191 297.332 47.0506C298.313 47.1009 299.345 46.9902 299.154 48.6664C298.65 53.1213 297.86 57.6064 297.976 62.0563C298.192 70.5784 298.983 79.0855 299.486 87.6026C299.944 95.3748 300.346 103.147 300.789 110.919C300.825 111.518 300.976 112.112 301.152 113.214C301.327 112.827 301.462 112.422 301.554 112.006C301.595 98.0275 301.726 84.0488 301.615 70.075C301.554 62.3784 301.041 54.6868 300.85 46.9902C300.815 45.4247 300.533 44.7552 298.806 44.7401C272.267 44.5186 245.727 44.1914 219.187 43.9901C198.506 43.829 177.81 44.282 157.144 43.5924C135.23 42.9286 113.296 43.5589 91.4568 45.4801H91.4215ZM59.5921 140.543L58.4596 140.432C58.218 141.836 57.7701 143.236 57.765 144.635C57.7399 154.094 57.8556 163.547 57.8405 173.005C57.8405 189.904 57.6996 206.807 57.6946 223.706C57.7474 226.133 57.9948 228.552 58.4345 230.939C58.5452 231.619 59.3958 232.177 59.9092 232.792C60.4125 232.097 61.1423 231.473 61.4191 230.692C61.6959 229.912 61.5349 229.041 61.555 228.206C62.31 200.017 61.102 171.828 59.9544 143.638C59.9192 142.602 59.7481 141.575 59.6122 140.543H59.5921ZM58.6609 139.113L59.3253 138.877C59.3555 138.157 59.4461 137.437 59.4159 136.722C58.9579 126.856 58.4395 116.99 58.0318 107.124C57.4874 94.9146 57.7463 82.683 58.8069 70.508C59.5015 62.8768 59.129 55.1449 59.1592 47.4583C59.1592 46.5523 58.6559 45.6412 58.3992 44.7351L57.5889 44.9364C57.6845 46.069 57.7751 47.2016 57.8808 48.3342C58.1324 51.0726 58.671 53.8261 58.5854 56.5544C58.4294 61.8197 58.0821 67.09 57.5235 72.3201C55.1428 93.8093 56.1746 115.288 57.5587 136.752C57.6292 137.568 58.2986 138.318 58.6811 139.113H58.6609ZM55.9632 146.78C53.9952 146.941 52.138 146.598 50.8395 147.283C47.1401 149.266 47.1401 153.495 50.608 155.77C51.0257 156.047 51.4434 156.319 51.841 156.616C54.3576 158.473 55.2183 161.201 54.2318 164.111C53.9701 164.881 53.6781 165.621 53.4114 166.366L55.9632 168.485V146.78ZM54.9565 136.425L55.4599 136.224C55.1629 131.311 54.871 126.403 54.5489 121.122C52.9987 122.215 51.7555 123.005 50.608 123.916C48.031 125.965 47.6938 128.24 49.7674 130.807C51.378 132.781 53.205 134.553 54.9616 136.425H54.9565ZM310.951 132.116L303.457 122.552V133.787L310.951 132.116ZM303.855 140.2C304.207 140.558 304.821 141.711 305.672 141.937C307.207 142.31 311.324 138.685 310.926 137.336C310.715 136.817 310.389 136.354 309.971 135.981C309.553 135.608 309.055 135.337 308.515 135.187C306.265 134.819 303.925 137.175 303.855 140.2ZM303.517 144.831V153.097C306.406 149.161 308.817 145.868 311.57 142.103L303.517 144.831ZM173.089 239.184L162.519 238.681L162.353 239.295C164.246 240.418 166.098 241.611 168.036 242.638C171.146 244.263 172.857 243.206 173.089 239.184ZM55.6562 141.892C55.7216 138.912 54.6495 138.106 51.8008 138.011C50.4821 137.965 49.4654 138.217 49.3799 139.788C49.2641 141.987 51.7102 144.847 53.6832 144.318C54.6747 144.061 55.2887 142.38 55.6562 141.892ZM180.603 239.33C179.708 239.708 178.792 241.55 178.026 239.446C177.277 239.829 176.124 240.03 175.857 240.629C175.695 240.949 175.606 241.3 175.596 241.658C175.586 242.017 175.656 242.373 175.801 242.701C175.945 243.029 176.161 243.32 176.432 243.555C176.702 243.789 177.022 243.961 177.367 244.057C178.268 244.364 179.758 244.253 180.417 243.68C181.711 242.562 181.6 240.966 180.603 239.33ZM54.0053 44.2518L56.1444 42.5051L52.7923 38.8456C52.0373 39.5805 50.7791 40.2248 50.6281 41.0655C50.2758 43.084 52.0223 43.5773 54.0053 44.2518ZM177.735 41.3574C181.55 39.1174 181.519 37.9898 177.579 34.8135C175.918 36.9327 175.978 39.3489 177.735 41.3574ZM181.625 42.3642H188.254L183.367 38.7852C182.783 39.9882 182.29 41 181.625 42.3591V42.3642ZM306.406 40.1594C305.229 39.3942 304.267 38.4932 304.026 38.6493C303.19 39.213 302.204 40.0839 302.068 40.9648C301.972 41.589 303.15 42.4095 303.754 43.1444C304.499 42.2987 305.239 41.4581 306.406 40.1594ZM58.515 238.515C57.2617 237.413 56.2501 236.104 55.8625 236.27C54.8861 236.683 54.1865 237.755 53.3762 238.565C54.1412 239.069 54.8861 239.924 55.6864 239.99C56.4111 240.045 57.2013 239.245 58.515 238.515ZM304.67 239.929C305.677 238.746 307.277 237.649 305.329 236.129C304.791 235.706 303.095 235.741 302.813 236.129C301.615 238.077 302.964 239.089 304.67 239.929ZM188.984 240.705L188.913 239.874C187.577 239.71 186.233 239.63 184.887 239.632C184.464 239.632 184.081 240.403 183.679 240.815C184.182 241.137 184.685 241.777 185.103 241.716C186.417 241.461 187.713 241.123 188.984 240.705ZM149.056 37.8086C148.93 37.3858 148.799 36.9629 148.668 36.5401C147.766 36.7158 146.88 36.9684 146.021 37.2952C145.845 37.3707 146.021 38.2516 146.051 38.76L149.056 37.8086Z"    /></svg>